<svg width="69" height="69" viewBox="0 0 69 69" fill="none" xmlns="http://www.w3.org/2000/svg">
  <path d="M49.25 39.5312C49.25 28.6064 40.3936 19.75 29.4688 19.75C18.5439 19.75 9.6875 28.6064 9.6875 39.5312C9.6875 50.4561 18.5439 59.3125 29.4688 59.3125C40.3936 59.3125 49.25 50.4561 49.25 39.5312ZM54.25 39.5312C54.25 53.2175 43.155 64.3125 29.4688 64.3125C15.7824 64.3125 4.6875 53.2175 4.6875 39.5312C4.6875 25.8449 15.7824 14.75 29.4688 14.75C43.155 14.75 54.25 25.8449 54.25 39.5312Z" fill="#3082E8"/>
  <path d="M60.0449 5.41973C61.0212 4.44342 62.6038 4.44342 63.5801 5.41973C64.5564 6.39604 64.5564 7.97858 63.5801 8.95489L47.7676 24.7674C46.7913 25.7437 45.2087 25.7437 44.2324 24.7674C43.2561 23.7911 43.2561 22.2085 44.2324 21.2322L60.0449 5.41973Z" fill="#3082E8"/>
  <path d="M59.3125 25.875V9.6875H43.125C41.7443 9.6875 40.625 8.56821 40.625 7.1875C40.625 5.80679 41.7443 4.6875 43.125 4.6875H61.8125C63.1932 4.6875 64.3125 5.80679 64.3125 7.1875V25.875C64.3125 27.2557 63.1932 28.375 61.8125 28.375C60.4318 28.375 59.3125 27.2557 59.3125 25.875Z" fill="#3082E8"/>
  </svg>
  